HIERARCHY
ROOT SimulationBone
{
	OFFSET 0.000000 0.000000 0.000000
	CHANNELS 6 Xposition Yposition Zposition Zrotation Yrotation Xrotation 
	JOINT Hips
	{
		OFFSET 0.000000 0.000000 0.000000
		CHANNELS 6 Xposition Yposition Zposition Zrotation Yrotation Xrotation 
		JOINT RightUpLeg
		{
			OFFSET 0.103458 1.857838 10.548509
			CHANNELS 3 Zrotation Yrotation Xrotation
			JOINT RightLeg
			{
				OFFSET 43.500004 -0.000038 -0.000002
				CHANNELS 3 Zrotation Yrotation Xrotation
				JOINT RightFoot
				{
					OFFSET 42.372196 0.000015 0.000010
					CHANNELS 3 Zrotation Yrotation Xrotation
					JOINT RightToe
					{
						OFFSET 17.300011 0.000003 -0.000006
						CHANNELS 3 Zrotation Yrotation Xrotation
						End Site
						{
							OFFSET 0.000000 0.000000 0.000000
						}
					}
				}
			}
		}
		JOINT LeftUpLeg
		{
			OFFSET 0.103461 1.857837 -10.548498
			CHANNELS 3 Zrotation Yrotation Xrotation
			JOINT LeftLeg
			{
				OFFSET 43.500046 -0.000042 0.000031
				CHANNELS 3 Zrotation Yrotation Xrotation
				JOINT LeftFoot
				{
					OFFSET 42.372253 0.000011 -0.000004
					CHANNELS 3 Zrotation Yrotation Xrotation
					JOINT LeftToe
					{
						OFFSET 17.299978 -0.000010 0.000025
						CHANNELS 3 Zrotation Yrotation Xrotation
						End Site
						{
							OFFSET 0.000000 0.000000 0.000000
						}
					}
				}
			}
		}
		JOINT Spine
		{
			OFFSET 6.901964 -2.603743 0.000001
			CHANNELS 3 Zrotation Yrotation Xrotation
			JOINT Spine1
			{
				OFFSET 12.588102 0.000002 0.000000
				CHANNELS 3 Zrotation Yrotation Xrotation
				JOINT Spine2
				{
					OFFSET 12.343204 0.000009 -0.000003
					CHANNELS 3 Zrotation Yrotation Xrotation
					JOINT Neck
					{
						OFFSET 25.832901 -0.000015 0.000002
						CHANNELS 3 Zrotation Yrotation Xrotation
						JOINT Head
						{
							OFFSET 11.766612 0.000023 -0.000003
							CHANNELS 3 Zrotation Yrotation Xrotation
							End Site
							{
								OFFSET 0.000000 0.000000 0.000000
							}
						}
					}
					JOINT RightShoulder
					{
						OFFSET 19.745905 -1.480377 6.000110
						CHANNELS 3 Zrotation Yrotation Xrotation
						JOINT RightArm
						{
							OFFSET 11.284127 -0.000004 -0.000022
							CHANNELS 3 Zrotation Yrotation Xrotation
							JOINT RightForeArm
							{
								OFFSET 33.000050 -0.000022 0.000026
								CHANNELS 3 Zrotation Yrotation Xrotation
								JOINT RightHand
								{
									OFFSET 25.200010 0.000035 0.000011
									CHANNELS 3 Zrotation Yrotation Xrotation
									End Site
									{
										OFFSET 0.000000 0.000000 0.000000
									}
								}
							}
						}
					}
					JOINT LeftShoulder
					{
						OFFSET 19.746092 -1.480381 -6.000066
						CHANNELS 3 Zrotation Yrotation Xrotation
						JOINT LeftArm
						{
							OFFSET 11.284147 -0.000020 -0.000017
							CHANNELS 3 Zrotation Yrotation Xrotation
							JOINT LeftForeArm
							{
								OFFSET 33.000095 0.000005 0.000016
								CHANNELS 3 Zrotation Yrotation Xrotation
								JOINT LeftHand
								{
									OFFSET 25.199768 0.000156 0.000415
									CHANNELS 3 Zrotation Yrotation Xrotation
									End Site
									{
										OFFSET 0.000000 0.000000 0.000000
									}
								}
							}
						}
					}
				}
			}
		}
	}
}
MOTION
Frames: 14
Frame Time: 0.016667
220.848317 0.000000 543.422956 180.000000 -27.104676 180.000000 -4.367817 85.075233 -3.112613 87.616585 -6.610981 -177.013927 142.432939 -0.760892 -175.086066 -67.042657 3.513408 -5.463948 86.329697 2.438485 -6.807325 21.454555 0.003108 0.000017 -170.319933 -8.123599 175.912014 -33.567602 3.448730 -2.037740 81.253534 -2.747112 -16.806403 21.454551 -0.003096 -0.000001 9.588375 -0.402356 1.223674 9.154704 -0.900147 2.411723 8.836855 -0.885706 2.417109 15.667139 -17.071318 -21.298961 -31.004144 23.080905 -34.810171 178.744070 -72.263814 -0.074400 18.583149 44.888542 56.656821 -54.338918 -21.040932 2.334655 4.942135 6.111168 33.182868 -156.820485 79.863402 25.083604 -6.698903 -59.291456 -16.448894 -93.014512 3.054983 -2.652619 -13.563542 11.099656 -30.124118 
216.878553 0.000000 545.774018 180.000000 -26.510264 180.000000 -4.856564 86.250278 -3.009305 87.163481 -6.831583 -177.923026 142.875562 -1.497567 -175.482933 -56.947308 2.830006 -4.685120 84.585940 1.826036 -7.040961 21.454554 0.003108 0.000017 -167.370456 -6.662548 174.992808 -30.080671 3.936025 -2.584514 74.702502 -2.352314 -13.337626 21.454560 -0.003096 -0.000002 9.419003 -0.602774 1.468268 8.809179 -1.315410 2.886535 8.491401 -1.298104 2.894415 15.922416 -17.223529 -21.348869 -30.607757 23.547407 -34.953023 178.341092 -72.426425 0.336419 21.607623 45.454859 57.525282 -54.382427 -21.058318 2.335759 6.553916 6.997210 32.290745 -161.479976 79.833308 20.349755 -4.622673 -58.542806 -18.981660 -94.095490 2.753971 -2.681359 -13.054443 10.777495 -30.819552 
213.059717 0.000000 548.027859 180.000000 -25.867404 180.000000 -5.116686 87.081940 -2.812464 86.594602 -6.589999 -178.843772 143.575958 -2.752105 -176.441941 -46.592305 2.604858 -2.843198 84.493039 0.336107 -7.925898 21.454555 0.003108 0.000017 -165.317475 -5.812396 175.126556 -28.096201 3.664275 -3.543885 68.927645 -1.201231 -10.024397 21.454555 -0.003091 -0.000002 9.215033 -0.688285 1.760649 8.395231 -1.502272 3.467015 8.077636 -1.481459 3.476004 15.498435 -17.621536 -21.384564 -29.750616 24.135391 -35.093108 178.583478 -72.690899 0.081817 24.041780 45.846175 58.201147 -54.737791 -20.911869 2.340178 7.679261 9.022382 31.814129 -161.502799 80.384148 20.320246 -3.457711 -58.436583 -21.408617 -94.615843 2.596702 -2.691812 -12.492226 10.770034 -29.836704 
209.381256 0.000000 550.183568 180.000000 -25.177611 180.000000 -5.217168 87.615723 -2.571379 86.071464 -6.120692 -179.750758 144.512761 -4.201384 -177.165224 -36.581734 2.187095 -0.818430 85.127907 -1.297856 -9.291051 21.454556 0.003108 0.000018 -163.840598 -5.291833 175.989708 -27.464140 3.014336 -4.410263 64.424059 0.292117 -6.835660 21.454544 -0.003086 -0.000001 9.022498 -0.706929 2.070642 8.005148 -1.555126 4.087811 7.687814 -1.530565 4.097097 14.798875 -18.054526 -21.424244 -28.818374 24.680434 -35.225444 179.160003 -72.921410 -0.515030 25.903196 46.057013 58.619078 -55.354789 -20.716833 2.350435 8.415292 11.352743 31.607891 -159.060602 81.181187 22.787439 -2.728710 -58.612034 -23.743867 -94.678926 2.547258 -2.690298 -12.026444 10.932143 -28.120963 
205.832618 0.000000 552.240233 180.000000 -24.442290 180.000000 -5.228934 87.897133 -2.332827 85.757883 -5.656568 179.387418 145.619427 -5.549194 -176.844389 -27.607617 1.305969 0.351401 85.535339 -2.359469 -10.924568 21.454557 0.003108 0.000018 -162.639249 -4.783205 177.299444 -28.051965 2.353273 -4.635505 61.661676 1.675222 -3.642436 21.454538 -0.003084 0.000000 8.887066 -0.707419 2.368326 7.729871 -1.571112 4.684551 7.412815 -1.542956 4.693913 14.230025 -18.311478 -21.494510 -28.201461 25.016260 -35.357692 179.728983 -72.982780 -1.100513 27.215605 46.078456 58.721574 -56.183793 -20.588325 2.370647 8.857771 13.163619 31.500794 -156.629581 81.857979 25.239180 -2.058880 -58.690967 -25.905773 -94.387845 2.569357 -2.679746 -11.807440 11.143577 -26.622009 
202.403251 0.000000 554.196942 180.000000 -23.662752 180.000000 -5.199698 87.940403 -2.139164 85.771484 -5.371992 178.618418 146.768199 -6.615238 -175.031735 -20.328669 0.071075 -0.017842 85.125645 -2.423840 -12.574436 21.454557 0.003107 0.000018 -161.507080 -4.066653 178.792876 -29.822314 1.956517 -3.866361 61.004948 2.509430 -0.456123 21.454541 -0.003087 -0.000000 8.837694 -0.728032 2.623321 7.626426 -1.626976 5.193475 7.309602 -1.595764 5.203157 14.063018 -18.255977 -21.594020 -28.097487 25.070042 -35.474881 -179.979058 -72.804406 -1.396998 28.048826 45.906599 58.466887 -57.180211 -20.584697 2.405522 9.073448 13.919092 31.408182 -156.985690 82.182001 24.872475 -1.205219 -58.394557 -27.794950 -93.836942 2.636751 -2.661514 -11.834181 11.265018 -25.983014 
199.082603 0.000000 556.052785 180.000000 -22.840237 180.000000 -5.077788 87.634689 -2.026855 86.040512 -5.210040 178.034577 147.732688 -7.530901 -172.786219 -15.338423 -1.186076 -0.999541 84.965722 -2.023643 -14.009670 21.454557 0.003106 0.000017 -160.627239 -3.342500 -179.796056 -33.047921 1.621843 -2.534966 62.475678 2.555237 1.918220 21.454550 -0.003092 -0.000001 8.838282 -0.763011 2.802324 7.623202 -1.708561 5.548912 7.306547 -1.675215 5.559074 14.020159 -18.051124 -21.578543 -27.922459 25.148380 -35.441458 -179.835862 -72.560408 -1.539594 28.633574 45.572251 57.848081 -58.313784 -20.538080 2.446534 9.051822 14.217700 31.620776 -159.663797 82.222000 22.160809 -0.199860 -57.887579 -29.479434 -93.085997 2.763828 -2.635466 -11.457600 11.013537 -25.602572 
195.860121 0.000000 557.806849 180.000000 -21.975919 180.000000 -4.814472 86.903401 -2.018046 86.469809 -5.084447 177.702634 148.347310 -8.369069 -171.432902 -13.168205 -2.255730 -1.409338 86.055253 -1.796569 -15.032220 21.454557 0.003107 0.000017 -160.227763 -2.808663 -178.693135 -37.902995 1.119017 -1.227154 65.684000 1.860958 2.713845 21.454557 -0.003094 -0.000001 8.851826 -0.800193 2.885215 7.647154 -1.788890 5.711930 7.330598 -1.754559 5.722571 13.815829 -17.853949 -21.344643 -27.182848 25.495567 -35.158785 -179.707554 -72.434002 -1.669143 29.116111 45.127389 56.902187 -59.522766 -20.298678 2.477885 8.794975 14.608200 32.278839 -162.963409 82.073197 18.821791 0.825154 -57.412584 -31.069542 -92.132914 3.018154 -2.605940 -10.249406 10.244969 -24.862322 
192.725253 0.000000 559.458224 180.000000 -21.070931 180.000000 -4.465549 85.932053 -2.068252 87.060276 -5.014426 177.547478 148.676702 -8.868392 -171.833913 -13.820622 -2.550711 -0.866425 87.327663 -2.102415 -15.605661 21.454558 0.003108 0.000017 -160.264105 -2.298098 -177.908109 -43.828968 0.555201 -0.469744 68.909846 1.134350 2.399244 21.454560 -0.003093 -0.000001 8.902006 -0.847501 2.907617 7.744829 -1.887303 5.752756 7.428304 -1.852719 5.763989 13.676328 -17.497451 -21.094952 -26.541178 25.732146 -34.820396 -179.851175 -72.405308 -1.521010 29.135455 44.668330 55.804424 -60.616241 -20.013849 2.498355 8.407452 14.298165 32.523738 -165.357129 81.709839 16.399695 1.472130 -57.079107 -32.546383 -90.762094 3.639923 -2.593499 -9.285334 9.581308 -24.261582 
189.667447 0.000000 561.005998 180.000000 -20.126367 180.000000 -4.099920 84.935063 -2.126747 87.817549 -5.070102 177.490285 148.795245 -8.787138 -174.218766 -16.986833 -1.612891 0.519170 87.282790 -3.133605 -15.864811 21.454558 0.003108 0.000017 -160.658083 -1.619593 -177.417385 -50.206081 0.009317 -0.572224 70.521130 0.964125 1.760434 21.454556 -0.003091 -0.000001 9.015733 -0.917741 2.898699 7.969046 -2.032559 5.728204 7.652476 -1.998118 5.740313 13.816166 -16.843412 -21.019832 -26.664636 25.497265 -34.629341 179.571419 -72.404117 -0.927541 28.321240 44.281475 54.728294 -61.403237 -19.868706 2.517481 7.934590 12.518003 31.602578 -165.822890 81.175849 15.930201 1.407018 -57.002690 -33.853323 -88.815403 4.805885 -2.597746 -9.439781 9.552258 -24.297188 
186.676151 0.000000 562.449259 180.000000 -19.143300 180.000000 -3.745753 83.980347 -2.197809 88.671936 -5.420793 177.579855 148.621596 -8.246399 -176.737278 -21.795159 -0.379153 1.789866 84.783950 -4.552067 -16.392403 21.454558 0.003107 0.000017 -161.502159 -0.814406 -177.294786 -56.924650 -0.412255 -0.929797 70.599853 1.048624 1.196471 21.454553 -0.003091 -0.000001 9.172498 -1.022826 2.806323 8.279537 -2.243511 5.533278 7.962793 -2.210240 5.546665 13.898013 -16.180974 -20.967846 -27.027951 25.084031 -34.458061 179.176667 -72.368289 -0.521118 26.772201 44.014899 53.682537 -61.808983 -19.902831 2.537151 7.064178 9.973879 30.140965 -164.455613 80.826341 17.319140 0.783272 -57.416057 -34.874819 -86.583732 6.261482 -2.592028 -9.415780 9.388788 -24.541361 
183.740812 0.000000 563.787096 180.000000 -18.122791 180.000000 -3.413329 83.063966 -2.298890 89.573016 -6.175181 177.887254 148.129533 -7.498342 -177.816533 -27.527157 0.056335 2.323928 79.866247 -5.964701 -17.356740 21.454558 0.003108 0.000018 -162.849406 0.053386 -177.470527 -63.999930 -0.542064 -1.010706 69.834684 1.026023 0.863074 21.454556 -0.003093 -0.000000 9.360178 -1.173368 2.573118 8.653663 -2.535622 5.052370 8.336572 -2.505241 5.067535 13.545790 -15.788542 -20.757452 -27.058972 24.853710 -34.167148 179.379123 -72.261054 -0.727076 24.646767 43.860478 52.534660 -61.766461 -20.099959 2.551435 5.535705 7.471111 28.941935 -161.731699 80.857088 20.082522 -0.260701 -58.421553 -35.448337 -84.308318 7.775413 -2.584697 -7.971394 8.449741 -24.475741 
180.850879 0.000000 565.018598 180.000000 -17.065894 180.000000 -3.077974 82.041054 -2.447867 90.650530 -7.102932 178.462276 147.531498 -6.946199 -179.029599 -34.316942 0.019158 3.046334 76.855712 -6.898405 -17.101245 21.454558 0.003109 0.000018 -164.396137 1.097306 -177.190939 -71.395884 -0.607510 -1.339552 69.600467 1.117628 0.461307 21.454560 -0.003095 0.000001 9.646660 -1.376555 2.201926 9.228700 -2.924146 4.288332 8.911120 -2.898358 4.305870 12.757237 -15.475096 -20.388921 -27.183551 24.802513 -33.874633 179.018889 -72.118782 -0.353895 21.914311 43.590519 50.804247 -61.127692 -20.365334 2.542659 3.924843 4.766313 28.137013 -159.937975 80.620855 21.905546 -2.096616 -59.513813 -35.335870 -81.573303 9.644869 -2.609229 -6.241995 7.889354 -24.061935 
177.995799 0.000000 566.142852 180.000000 -15.973667 180.000000 -2.740559 80.838845 -2.649350 91.939002 -7.935678 179.294635 147.080424 -6.924975 178.027707 -42.041312 0.286329 4.712066 79.419211 -6.995377 -14.505566 21.454558 0.003110 0.000018 -165.971344 2.385163 -175.888441 -78.979564 -0.973189 -2.387661 70.959203 1.566795 -0.341248 21.454555 -0.003094 0.000001 10.067383 -1.617430 1.729841 10.077440 -3.379252 3.313604 9.759317 -3.359327 3.333929 11.667968 -15.041020 -19.938116 -27.855487 24.836376 -33.721787 176.934435 -71.957335 1.792780 18.539678 42.957490 48.264851 -59.690779 -20.633714 2.498226 2.799219 1.563188 27.504744 -161.078315 79.564742 20.761142 -4.939428 -60.185870 -34.440840 -77.929489 12.116672 -2.635161 -5.476998 8.921906 -23.299123 
